Coordinates
version=1
nRows=13
nColumns=38
inDegrees=yes

Units are S.I. units (second, meters, Newtons, ...)
Angles are in degrees.

endheader
time	pelvis_tilt	pelvis_list	pelvis_rotation	pelvis_tx	pelvis_ty	pelvis_tz	hip_flexion_r	hip_adduction_r	hip_rotation_r	knee_angle_r	ankle_angle_r	subtalar_angle_r	mtp_angle_r	hip_flexion_l	hip_adduction_l	hip_rotation_l	knee_angle_l	ankle_angle_l	subtalar_angle_l	mtp_angle_l	lumbar_extension	lumbar_bending	lumbar_rotation	arm_flex_r	arm_add_r	arm_rot_r	elbow_flex_r	pro_sup_r	wrist_flex_r	wrist_dev_r	arm_flex_l	arm_add_l	arm_rot_l	elbow_flex_l	pro_sup_l	wrist_flex_l	wrist_dev_l
      2.70000000	      1.84366412	     -1.99286770	     -2.17982377	      0.10067360	      0.89082693	      0.27992345	    -18.58551343	      5.62987169	     -5.19664081	    -16.16067787	     13.08912090	      9.56076297	      7.69680709	     29.17575450	      0.81203404	     -0.94099426	    -14.87511362	      3.61823073	      2.99841952	      7.33243838	     -7.40173489	      3.69292144	      5.10613293	      1.75417495	    -23.55959251	     11.16896292	     37.63565375	     86.51662706	      0.00000000	      0.00000000	     -6.97870703	    -11.76309403	     19.10376912	     11.81563130	     86.51662706	      0.00000000	      0.00000000
      2.71000000	      1.67607215	     -1.67771992	     -2.38569252	      0.11643231	      0.88924914	      0.28033070	    -18.82530747	      5.05321612	     -5.22158937	    -17.23326407	     12.21334333	     10.01672168	      9.40052018	     29.21745428	      1.28685771	     -0.75345403	    -16.16805848	      2.41914351	      2.34463518	      7.34863630	     -6.92143942	      3.26553598	      5.21603444	      1.31623703	    -23.37095908	     10.92852786	     37.51026826	     86.51662706	      0.00000000	      0.00000000	     -7.24643222	    -11.77496161	     19.44785712	     11.51357322	     86.51662706	      0.00000000	      0.00000000
      2.72000000	      1.48438593	     -1.29092732	     -2.50246104	      0.13237867	      0.88771619	      0.28061414	    -18.96058978	      4.43053049	     -5.25812359	    -18.41317590	     11.05856226	     10.32373503	     11.41245805	     29.27205681	      1.88151523	     -0.44250711	    -17.46250563	      0.87048253	      1.45696321	      7.33331750	     -6.37654874	      2.75096415	      5.19815845	      0.84008079	    -23.11922227	     10.65269895	     37.32155880	     86.51662706	      0.00000000	      0.00000000	     -7.53205070	    -11.81949034	     19.74936062	     11.23876616	     86.51662706	      0.00000000	      0.00000000
      2.73000000	      1.28672636	     -0.82517860	     -2.51917607	      0.14840738	      0.88652597	      0.28071677	    -18.96493574	      3.76228603	     -5.31860926	    -19.73562353	      9.55188477	     10.46363940	     13.69508229	     29.36865148	      2.57817123	     -0.03044693	    -18.74015415	     -0.90523754	      0.41583050	      7.28488242	     -5.79360380	      2.14795222	      5.04823538	      0.34275422	    -22.80356697	     10.33961171	     37.06374579	     86.51662706	      0.00000000	      0.00000000	     -7.81391351	    -11.89247428	     19.99816807	     10.99082271	     86.51662706	      0.00000000	      0.00000000
      2.74000000	      1.09219622	     -0.27468840	     -2.43968863	      0.16435834	      0.88592028	      0.28066989	    -18.80988298	      3.04707689	     -5.41218340	    -21.24040931	      7.62374520	     10.42472723	     16.17907657	     29.50162140	      3.35393821	      0.46010747	    -20.02694686	     -2.73478709	     -0.70047575	      7.20669326	     -5.20237083	      1.45676764	      4.77983082	     -0.16413201	    -22.42656029	      9.98960974	     36.73707143	     86.51662706	      0.00000000	      0.00000000	     -8.07127055	    -11.99087678	     20.18421208	     10.77332797	     86.51662706	      0.00000000	      0.00000000
      2.75000000	      0.90330718	      0.35581259	     -2.28263313	      0.18010935	      0.88595488	      0.28056247	    -18.47123437	      2.28444687	     -5.54016677	    -22.96599016	      5.22548103	     10.19837561	     18.76603492	     29.63666202	      4.18723917	      1.00466160	    -21.35494039	     -4.42631003	     -1.81865870	      7.10358701	     -4.63077946	      0.68347133	      4.42303211	     -0.67504907	    -21.99530616	      9.60670872	     36.34810411	     86.51662706	      0.00000000	      0.00000000	     -8.28771329	    -12.11313541	     20.29791724	     10.59422783	     86.51662706	      0.00000000	      0.00000000
      2.76000000	      0.72646843	      1.04726866	     -2.07750311	      0.19567390	      0.88649643	      0.28047169	    -17.93317945	      1.47620674	     -5.69090473	    -24.94345322	      2.34825704	      9.77490786	     21.33554022	     29.73258764	      5.06106465	      1.57515202	    -22.72413150	     -5.80469943	     -2.87097549	      6.97862735	     -4.10227305	     -0.15691977	      4.01868926	     -1.18902286	    -21.52184895	      9.19979208	     35.90877608	     86.51662706	      0.00000000	      0.00000000	     -8.45283446	    -12.25841579	     20.33096963	     10.46542584	     86.51662706	      0.00000000	      0.00000000
      2.77000000	      0.57281161	      1.77109363	     -1.85819104	      0.21112897	      0.88733612	      0.28043886	    -17.18677504	      0.62759188	     -5.83621578	    -27.19105285	     -0.96103479	      9.14001417	     23.75615201	     29.75455270	      5.96283530	      2.13925862	    -24.09110045	     -6.74064058	     -3.79602013	      6.83140200	     -3.63530605	     -1.04047119	      3.60962023	     -1.70649995	    -21.02246368	      8.78326405	     35.43430220	     86.51662706	      0.00000000	      0.00000000	     -8.56192514	    -12.42538117	     20.27731971	     10.40155348	     86.51662706	      0.00000000	      0.00000000
      2.78000000	      0.44903486	      2.49947057	     -1.65608208	      0.22645448	      0.88832962	      0.28048449	    -16.22528886	     -0.25090084	     -5.93249725	    -29.71118809	     -4.59153543	      8.27317197	     25.89907323	     29.67361941	      6.88063687	      2.66083724	    -25.38653068	     -7.16763184	     -4.54109889	      6.65813391	     -3.24335832	     -1.93796083	      3.23164171	     -2.22575436	    -20.51591748	      8.37695253	     34.94039849	     86.51662706	      0.00000000	      0.00000000	     -8.61452184	    -12.61119278	     20.13422375	     10.41800173	     86.51662706	      0.00000000	      0.00000000
      2.79000000	      0.35257487	      3.21393846	     -1.49500933	      0.24150967	      0.88944265	      0.28060598	    -15.04240039	     -1.14165338	     -5.92841352	    -32.49135948	     -8.37152527	      7.14935655	     27.65259537	     29.46622020	      7.79689318	      3.10130663	    -26.54190104	     -7.08516839	     -5.06590450	      6.45319978	     -2.93412423	     -2.82020330	      2.90733188	     -2.74010238	    -20.02119233	      8.00513670	     34.44040822	     86.51662706	      0.00000000	      0.00000000	     -8.61295341	    -12.81126602	     19.90307785	     10.52845164	     86.51662706	      0.00000000	      0.00000000
      2.80000000	      0.27622064	      3.90580095	     -1.38973661	      0.25616328	      0.89067964	      0.28076788	    -13.63610701	     -2.01977206	     -5.77803507	    -35.50781444	    -12.08427223	      5.74473717	     28.93498196	     29.12031669	      8.68349359	      3.42189396	    -27.50771335	     -6.54959210	     -5.34601080	      6.21137551	     -2.70810771	     -3.66226375	      2.64413636	     -3.23682143	    -19.55530231	      7.69468642	     33.94299684	     86.51662706	      0.00000000	      0.00000000	     -8.56154838	    -13.01994892	     19.58981200	     10.74232333	     86.51662706	      0.00000000	      0.00000000
      2.81000000	      0.21360409	      4.56842064	     -1.34769909	      0.27038354	      0.89200688	      0.28093871	    -12.01447827	     -2.85551777	     -5.45485896	    -38.72759671	    -15.49483698	      4.04595247	     29.70343534	     28.64018186	      9.50250243	      3.58678327	    -28.25990350	     -5.65645818	     -5.37479360	      5.93010931	     -2.55805203	     -4.44475698	      2.43664373	     -3.69803956	    -19.13168962	      7.47243880	     33.45095941	     86.51662706	      0.00000000	      0.00000000	     -8.46637898	    -13.23179396	     19.20469905	     11.06271178	     86.51662706	      0.00000000	      0.00000000
      2.82000000	      0.15992259	      5.18884517	     -1.37199660	      0.28420740	      0.89335714	      0.28115259	    -10.19691365	     -3.61797256	     -4.96072142	    -42.10571502	    -18.38308613	      2.06117323	     29.95738718	     28.04263809	     10.21244535	      3.56754735	    -28.79812531	     -4.51950665	     -5.16339320	      5.61119861	     -2.47038396	     -5.15242983	      2.27143466	     -4.10329378	    -18.75939750	      7.36207916	     32.96141754	     86.51662706	      0.00000000	      0.00000000	     -8.33497049	    -13.44273302	     18.76156497	     11.48536317	     86.51662706	      0.00000000	      0.00000000
